<?xml version="1.0" encoding="utf-8"?>
<!-- Generator: Adobe Illustrator 26.4.1, SVG Export Plug-In . SVG Version: 6.00 Build 0)  -->
<svg version="1.1" id="Layer_1" xmlns="http://www.w3.org/2000/svg" xmlns:xlink="http://www.w3.org/1999/xlink" x="0px" y="0px"
	 viewBox="0 0 800 320" style="enable-background:new 0 0 800 320;" xml:space="preserve">
<style type="text/css">
	.st0{fill:#67BD51;}
	.st1{fill:#005332;}
</style>
<g id="Layer_1_00000099660086416657468040000004845633881189163659_">
	<g>
		<g>
			<polyline class="st0" points="397.1,251 347.1,151 396.7,179.3 445.1,150.8 397.1,251 397.1,251 397.1,251 347.1,151 			"/>
			<polyline class="st0" points="464.4,151.8 412.5,251.8 464.3,223.5 514.6,252 464.4,151.8 464.4,151.8 464.4,151.8 412.5,251.8 
							"/>
			<path class="st1" d="M185.2,250.8h-63.4V150.4h62.5v15h-46v27.3h42.3v15h-42.3v27.9h47V250.8z"/>
			<path class="st1" d="M263.5,250.8h-63V150.4h16.2v85.2h46.8V250.8z"/>
			<path class="st1" d="M340.3,250.8h-63.4V150.4h62.5v15h-46.2v27.3h42.3v15h-42.3v27.9h47v15.2H340.3z"/>
			<path class="st1" d="M555.4,250.8H539v-85.4h-29.8v-15h76.1v15h-29.8V250.8z"/>
			<path class="st1" d="M662.1,250.8h-63.4V150.4h62.5v15h-46.2v27.3h42.3v15h-42.3v27.9h47v15.2H662.1z"/>
			<g>
				<path class="st1" d="M135.4,133.6h-15.6V37h38.1c5.9,0,11.1,1.2,15.6,3.6c4.5,2.4,8.1,5.7,10.7,10.1c2.6,4.3,4,9.5,4,15.4v1.8
					c0,5.9-1.4,11.1-4,15.6c-2.8,4.3-6.3,7.7-10.9,10.1c-4.5,2.4-9.7,3.6-15.4,3.6h-22.5V133.6z M135.4,51.4v31h20.9
					c4.9,0,8.9-1.4,11.7-4c3-2.6,4.3-6.3,4.3-10.9v-1.4c0-4.7-1.4-8.3-4.3-10.9c-3-2.6-6.9-4-11.9-4
					C156.1,51.4,135.4,51.4,135.4,51.4z"/>
				<path class="st1" d="M217.4,133.6h-15.6V37h40.3c5.9,0,11.1,1,15.6,3.2c4.5,2.2,7.9,5.1,10.5,8.9c2.4,3.8,3.8,8.3,3.8,13.6v1.6
					c0,5.9-1.4,10.9-4.2,14.4c-2.8,3.6-6.1,6.3-10.3,7.7v2.4c3.6,0.2,6.3,1.4,8.3,3.8c2,2.2,3,5.3,3,9.3v31.8H253V104
					c0-2.4-0.6-4.3-1.8-5.7S248,96,245.1,96h-27.7V133.6z M217.4,51.4v30h23.1c4.9,0,8.7-1.4,11.5-4c2.8-2.6,4.2-6.1,4.2-10.7v-1.2
					c0-4.5-1.4-8.1-4.2-10.7c-2.8-2.6-6.5-4-11.5-4h-23.1V51.4z"/>
				<path class="st1" d="M323.7,135.4c-11.9,0-21.1-3.4-28.1-10.1c-6.9-6.7-10.5-16.2-10.5-28.9V73.7c0-12.5,3.6-22.1,10.5-28.9
					c6.9-6.7,16.4-10.1,28.1-10.1c11.9,0,21.1,3.4,28.1,10.1s10.5,16.2,10.5,28.9v22.9c0,12.5-3.6,22.1-10.5,28.9
					C344.9,132,335.6,135.4,323.7,135.4z M323.7,121.1c7.3,0,12.8-2.2,16.8-6.5c4-4.3,5.9-10.3,5.9-17.6V73.3c0-7.5-2-13.2-5.9-17.6
					s-9.7-6.5-16.8-6.5s-12.8,2.2-16.8,6.5c-4,4.3-6.1,10.3-6.1,17.6V97c0,7.5,2,13.2,6.1,17.6C310.9,119.2,316.6,121.1,323.7,121.1
					z"/>
				<path class="st1" d="M405.8,135.4c-9.7,0-17.4-2.8-22.9-8.1c-5.5-5.3-8.5-13-8.5-22.9v-8.5h15.6v8.7c0,4.9,1.4,8.7,4,11.7
					c2.6,3,6.5,4.3,11.5,4.3c4.7,0,8.3-1.4,10.7-4.3c2.4-2.8,3.6-6.7,3.6-11.7V51.4h-16.4V37h42.9v14.4h-10.7v53.2
					c0,10.1-2.6,17.6-7.7,22.9C422.2,132.8,415,135.4,405.8,135.4z"/>
				<path class="st1" d="M522.4,133.6h-61.1V37h60.3v14.4h-44.7v26.3h40.7v14.4h-40.7V119h45.5V133.6z"/>
				<path class="st1" d="M572.6,135.4c-11.7,0-20.8-3.4-27.7-10.1s-10.3-16.2-10.3-28.9V73.7c0-12.5,3.4-22.1,10.3-28.9
					s16-10.1,27.7-10.1s20.6,3.2,26.7,9.7c6.3,6.5,9.3,15.2,9.3,26.5v0.8h-15.4v-1.4c0-6.3-1.6-11.5-4.9-15.4s-8.5-5.9-15.6-5.9
					c-6.9,0-12.3,2.2-16.2,6.5c-4,4.3-5.9,10.3-5.9,17.8v23.5c0,7.5,2,13.4,5.9,17.8c4,4.3,9.3,6.5,16.2,6.5c7.1,0,12.3-2,15.6-6.1
					c3.4-4,4.9-9.1,4.9-15.2v-2.6h15.4v2c0,11.3-3.2,20-9.3,26.5C593.1,132.2,584.2,135.4,572.6,135.4z"/>
				<path class="st1" d="M660.5,133.6h-15.8V51.4H616V37h73.1v14.4h-28.7V133.6z"/>
			</g>
		</g>
	</g>
	<g>
		<path class="st1" d="M119.8,276.7v-5.1c0-5.5,3.4-8.5,8.7-8.5s8.7,3,8.7,8.5v5.1c0,5.5-3.4,8.5-8.7,8.5
			C123.1,285.2,119.8,282.2,119.8,276.7z M133.2,276.9v-5.3c0-3-1.8-4.7-4.7-4.7c-3,0-4.7,1.8-4.7,4.7v5.3c0,3,1.8,4.7,4.7,4.7
			C131.4,281.6,133.2,279.7,133.2,276.9z"/>
		<path class="st1" d="M140.7,284.8v-21.1h7.5l4.2,18.4h0.6v-18.4h4v21.1h-7.5l-4.2-18.4h-0.6v18.4H140.7z"/>
		<path class="st1" d="M160.9,284.8v-21.1h13.6v3.6h-9.7v5.1h8.7v3.6h-8.7v5.1h9.9v3.6h-13.8V284.8z"/>
		<path class="st1" d="M185.4,284.8v-21.1h8.7c4,0,6.7,2.6,6.7,6.5v0.4c0,4-3,6.5-6.7,6.5h-4.7v7.7H185.4z M189.3,273.3h4.3
			c1.8,0,3.2-1.2,3.2-3V270c0-1.8-1.2-3-3.2-3h-4.3V273.3z"/>
		<path class="st1" d="M203.6,284.8v-21.1h4v17.6h9.7v3.6H203.6z"/>
		<path class="st1" d="M218.6,284.8l5.5-21.1h6.9l5.5,21.1h-4.2l-1.2-4.7h-7.5l-1.2,4.7H218.6z M224.7,276.5h5.7l-2.6-10.3h-0.6
			L224.7,276.5z"/>
		<path class="st1" d="M242.1,284.8v-17.6H236v-3.6h16.4v3.6h-6.1v17.6H242.1z"/>
		<path class="st1" d="M255,284.8v-21.1h13.2v3.6h-9.3v5.1h8.5v3.6h-8.5v8.9L255,284.8L255,284.8z"/>
		<path class="st1" d="M270.6,276.7v-5.1c0-5.5,3.4-8.5,8.7-8.5s8.7,3,8.7,8.5v5.1c0,5.5-3.4,8.5-8.7,8.5S270.6,282.2,270.6,276.7z
			 M284,276.9v-5.3c0-3-1.8-4.7-4.7-4.7c-3,0-4.7,1.8-4.7,4.7v5.3c0,3,1.8,4.7,4.7,4.7C282.2,281.6,284,279.7,284,276.9z"/>
		<path class="st1" d="M291.3,284.8v-21.1h9.3c4,0,6.5,2.2,6.5,5.7v0.4c0,2.6-1.4,4.2-3.2,4.7v0.6c1.6,0,2.6,1.2,2.6,3v6.9h-4v-6.5
			c0-1-0.4-1.6-1.6-1.6h-5.5v7.9H291.3z M295.5,273.1h4.7c1.8,0,3-1.2,3-2.8V270c0-1.8-1.2-2.8-3-2.8h-4.7V273.1z"/>
		<path class="st1" d="M310.5,284.8v-21.1h7.3l3.8,18.4h0.6l3.8-18.4h7.3v21.1h-4v-18.2h-0.6l-3.6,18.2h-6.5l-3.6-18.2h-0.6v18.2
			H310.5z"/>
		<path class="st1" d="M336.8,282.2c0-1.8,1.2-3,3-3c1.6,0,3,1.2,3,3s-1.2,3-3,3C338.2,285.2,336.8,284,336.8,282.2z"/>
		<path class="st1" d="M352.4,276.7v-5.1c0-5.5,3.4-8.5,8.7-8.5c5.3,0,8.7,3,8.7,8.5v5.1c0,5.5-3.4,8.5-8.7,8.5
			C355.8,285.2,352.4,282.2,352.4,276.7z M365.8,276.9v-5.3c0-3-1.8-4.7-4.7-4.7c-3,0-4.7,1.8-4.7,4.7v5.3c0,3,1.8,4.7,4.7,4.7
			C364.2,281.6,365.8,279.7,365.8,276.9z"/>
		<path class="st1" d="M373.3,284.8v-21.1h7.5L385,282h0.6v-18.4h4v21.1H382l-4.2-18.4h-0.6v18.4H373.3z"/>
		<path class="st1" d="M393.7,284.8v-21.1h13.6v3.6h-9.7v5.1h8.7v3.6h-8.7v5.1h9.9v3.6h-13.8V284.8z"/>
		<path class="st1" d="M419.8,284.8l-2.8-21.1h4l2,18.4h0.6l2.6-18.4h6.9l2.6,18.4h0.6l2-18.4h4l-2.8,21.1h-6.9l-2.8-18.8h-0.6
			l-2.8,18.8H419.8z"/>
		<path class="st1" d="M443.3,284.8l5.5-21.1h6.9l5.5,21.1h-4.2L456,280h-7.5l-1.2,4.7H443.3z M449.4,276.5h5.7l-2.6-10.3H452
			L449.4,276.5z"/>
		<path class="st1" d="M467.2,284.8v-7.3l-7.1-13.8h4.3l4.5,9.1h0.6l4.5-9.1h4.3l-7.1,13.8v7.3H467.2z"/>
		<path class="st1" d="M487.4,276.7v-5.1c0-5.5,3.4-8.5,8.7-8.5s8.7,3,8.7,8.5v5.1c0,5.5-3.4,8.5-8.7,8.5
			C490.7,285.2,487.4,282.2,487.4,276.7z M500.8,276.9v-5.3c0-3-1.8-4.7-4.7-4.7c-3,0-4.7,1.8-4.7,4.7v5.3c0,3,1.8,4.7,4.7,4.7
			C499,281.6,500.8,279.7,500.8,276.9z"/>
		<path class="st1" d="M508.3,284.8v-21.1h13.2v3.6h-9.3v5.1h8.5v3.6h-8.5v8.9L508.3,284.8L508.3,284.8z"/>
		<path class="st1" d="M533.8,284.8l-2.8-21.1h4l2,18.4h0.6l2.6-18.4h6.9l2.6,18.4h0.6l2-18.4h4l-2.8,21.1h-6.9l-2.8-18.8h-0.6
			l-2.8,18.8H533.8z"/>
		<path class="st1" d="M558.7,276.7v-5.1c0-5.5,3.4-8.5,8.7-8.5c5.3,0,8.7,3,8.7,8.5v5.1c0,5.5-3.4,8.5-8.7,8.5
			C562.1,285.2,558.7,282.2,558.7,276.7z M572.2,276.9v-5.3c0-3-1.8-4.7-4.7-4.7s-4.7,1.8-4.7,4.7v5.3c0,3,1.8,4.7,4.7,4.7
			S572.2,279.7,572.2,276.9z"/>
		<path class="st1" d="M579.7,284.8v-21.1h9.3c4,0,6.5,2.2,6.5,5.7v0.4c0,2.6-1.4,4.2-3.2,4.7v0.6c1.6,0,2.6,1.2,2.6,3v6.9h-4v-6.5
			c0-1-0.4-1.6-1.6-1.6h-5.5v7.9H579.7z M583.6,273.1h4.7c1.8,0,3-1.2,3-2.8V270c0-1.8-1.2-2.8-3-2.8h-4.7V273.1z"/>
		<path class="st1" d="M598.6,284.8v-21.1h4v8.5h0.6l6.9-8.5h5.1l-8.9,10.5l9.1,10.7h-5.3l-7.1-8.5h-0.6v8.5H598.6z"/>
		<path class="st1" d="M617.6,284.8v-21.1h4v21.1H617.6z"/>
		<path class="st1" d="M625.5,284.8v-21.1h7.5l4.2,18.4h0.6v-18.4h4v21.1h-7.5l-4.2-18.4h-0.6v18.4H625.5z"/>
		<path class="st1" d="M645.3,276.7v-5.1c0-5.5,3.4-8.5,8.5-8.5s8.1,3,8.1,7.7v0.2h-4v-0.2c0-2.2-1.4-4-4.2-4s-4.5,1.8-4.5,4.7v5.1
			c0,3,1.8,4.9,4.5,4.9c3,0,4.2-1.8,4.2-4.2v-0.4H653v-3.4h8.9v10.9h-3.6v-2h-0.6c-0.4,1-1.4,2.4-4.7,2.4
			C648.8,285.2,645.3,282.2,645.3,276.7z"/>
	</g>
</g>
</svg>
