<?xml version="1.0" encoding="utf-8"?>
<!-- Generator: Adobe Illustrator 26.4.1, SVG Export Plug-In . SVG Version: 6.00 Build 0)  -->
<svg version="1.1" id="Layer_1" xmlns="http://www.w3.org/2000/svg" xmlns:xlink="http://www.w3.org/1999/xlink" x="0px" y="0px"
	 viewBox="0 0 800 320" style="enable-background:new 0 0 800 320;" xml:space="preserve">
<style type="text/css">
	
		.st0{clip-path:url(#SVGID_00000018210401307539607630000011841931035857033116_);fill:url(#SVGID_00000096746980289971834720000011304189974776161452_);}
	.st1{clip-path:url(#SVGID_00000158745878459481188820000018043357133464096682_);fill:#FFFFFF;}
	.st2{clip-path:url(#SVGID_00000176736922987218234140000004939782298892943510_);fill:#2F65AE;}
	.st3{clip-path:url(#SVGID_00000165927611723483402370000013716147502281881243_);fill:#108ECE;}
	.st4{clip-path:url(#SVGID_00000018926897642721930990000004371135724618497937_);fill:#108ECE;}
	.st5{clip-path:url(#SVGID_00000092445509105199548280000010877981686819117190_);fill:#108ECE;}
	.st6{clip-path:url(#SVGID_00000160873781913316810060000015822084972854054563_);fill:#108ECE;}
	.st7{clip-path:url(#SVGID_00000106849924387993670660000008581586450111599024_);fill:#108ECE;}
	.st8{clip-path:url(#SVGID_00000145037121381810478710000000528104978248133801_);fill:#108ECE;}
	.st9{clip-path:url(#SVGID_00000065051858434349416240000015651558979328781752_);fill:#108ECE;}
	.st10{fill:#21A3DB;}
</style>
<g id="Layer_1_00000163046676019894733210000007357854627453846689_">
	<g>
		<g>
			<defs>
				<polygon id="SVGID_1_" points="82,127.2 82,230.9 188,230.9 291.7,127.2 				"/>
			</defs>
			<clipPath id="SVGID_00000106854410345428893050000016871822330824099481_">
				<use xlink:href="#SVGID_1_"  style="overflow:visible;"/>
			</clipPath>
			
				<linearGradient id="SVGID_00000029760702275735841890000016188612118786232468_" gradientUnits="userSpaceOnUse" x1="301.4736" y1="64.5735" x2="304.5354" y2="64.5735" gradientTransform="matrix(0 33.8704 -33.8704 0 2373.967 -10083.8008)">
				<stop  offset="0" style="stop-color:#10B8EC"/>
				<stop  offset="9.790000e-02" style="stop-color:#18AAE2"/>
				<stop  offset="0.2929" style="stop-color:#1E92D1"/>
				<stop  offset="0.3373" style="stop-color:#208CCD"/>
				<stop  offset="0.5714" style="stop-color:#2677BC"/>
				<stop  offset="0.7959" style="stop-color:#2F69B1"/>
				<stop  offset="1" style="stop-color:#2F65AE"/>
			</linearGradient>
			
				<rect x="82" y="127.2" style="clip-path:url(#SVGID_00000106854410345428893050000016871822330824099481_);fill:url(#SVGID_00000029760702275735841890000016188612118786232468_);" width="209.7" height="103.7"/>
		</g>
	</g>
	<g>
		<g>
			<defs>
				<rect id="SVGID_00000145777837879273965430000001152250347192456088_" x="64.9" y="20.8" width="612.6" height="258.3"/>
			</defs>
			<clipPath id="SVGID_00000112616653973204970250000006467178009444230283_">
				<use xlink:href="#SVGID_00000145777837879273965430000001152250347192456088_"  style="overflow:visible;"/>
			</clipPath>
			<path style="clip-path:url(#SVGID_00000112616653973204970250000006467178009444230283_);fill:#FFFFFF;" d="M206.4,146.8h-20.7
				v49.1l-18-49.1h-17.8l-15.5,41c-1.5-10.3-12.4-13.9-20.7-16.6c-5.6-1.7-11.4-4.5-11.4-7.4c0-2.3,3.1-4.6,9.3-4.3
				c4.1,0.2,7.7,0.6,15.1,4.1l7.2-12.6c-6.6-3.3-15.9-5.6-23.4-5.6l0,0c-8.7,0-16.1,2.9-20.7,7.5c-3.1,3.3-4.8,7.4-5,12
				c-0.2,6.4,2.1,10.8,7.2,14.3c4.1,3.1,9.5,5,14.1,6.4c5.8,1.7,10.4,3.3,10.4,6.6c0,1.2-0.6,2.3-1.4,3.3c-1.4,1.5-3.7,1.9-6.6,2.1
				c-5.8,0.2-10.3-0.8-17-4.8l-6.4,12.6c7,3.9,15.1,6.2,23.4,6.2h1.2c7.2-0.2,13.2-2.1,17.8-6c0.2-0.2,0.6-0.4,0.8-0.6l-2.1,5.6
				h18.8l3.1-9.5c3.3,1.2,7,1.7,11,1.7c3.9,0,7.5-0.6,10.8-1.7l3.1,9.5h30.2v-19.7h6.6c16.1,0,25.7-8.1,25.7-22.1
				C235.4,153.7,226.1,146.8,206.4,146.8 M158.6,188.8c-2.3,0-4.6-0.4-6.6-1.2l6.6-20.7h0.2l6.4,20.7
				C163.2,188.4,161.1,188.8,158.6,188.8 M207.5,177h-4.5v-16.6h4.6c6,0,10.8,1.9,10.8,8.1C218.6,174.8,213.7,177,207.5,177"/>
		</g>
		<g>
			<defs>
				<rect id="SVGID_00000101102269616697138090000011695378444122403504_" x="64.9" y="20.8" width="612.6" height="258.3"/>
			</defs>
			<clipPath id="SVGID_00000101817856428784209640000002833088928207197880_">
				<use xlink:href="#SVGID_00000101102269616697138090000011695378444122403504_"  style="overflow:visible;"/>
			</clipPath>
			<path style="clip-path:url(#SVGID_00000101817856428784209640000002833088928207197880_);fill:#2F65AE;" d="M213,224.2
				c0-3.1,2.3-5.6,5.4-5.6c3.1,0,5.4,2.3,5.4,5.6s-2.3,5.6-5.4,5.6C215.5,229.8,213,227.5,213,224.2 M218.6,230.9
				c3.7,0,6.8-2.9,6.8-6.8c0-3.9-3.1-6.8-6.8-6.8c-3.7,0-6.8,2.9-6.8,6.8C211.6,228,214.9,230.9,218.6,230.9 M217,224.7h1.4l1.9,3.3
				h1.4l-2.1-3.5c1.2-0.2,1.9-0.8,1.9-2.1c0-1.5-1-2.1-2.7-2.1h-2.9v7.7h1.2C217,228,217,224.7,217,224.7z M217,223.8v-2.3h1.5
				c0.8,0,1.7,0.2,1.7,1.2c0,1.2-1,1.4-1.9,1.4H217V223.8z"/>
		</g>
		<g>
			<defs>
				<rect id="SVGID_00000087375976854870107630000008852967557259599778_" x="64.9" y="20.8" width="612.6" height="258.3"/>
			</defs>
			<clipPath id="SVGID_00000088133880735053099650000005915635871663901578_">
				<use xlink:href="#SVGID_00000087375976854870107630000008852967557259599778_"  style="overflow:visible;"/>
			</clipPath>
			<path style="clip-path:url(#SVGID_00000088133880735053099650000005915635871663901578_);fill:#108ECE;" d="M391.7,210.4
				c-0.2-4.1-0.2-8.1,0-12.2h-30.4c-0.4-1.2-0.2-8.7-0.2-10.4c9.5-13.9,19.3-27.1,28.8-41h14.9v40.4h10.8v11l-10.8,0.2v12.2
				L391.7,210.4z M375.1,187.2h16.4v-24C385.7,171,380.3,179.1,375.1,187.2"/>
		</g>
		<g>
			<defs>
				<rect id="SVGID_00000062171160625642449060000017655932148494753953_" x="64.9" y="20.8" width="612.6" height="258.3"/>
			</defs>
			<clipPath id="SVGID_00000084511482102241196190000008806487374561888163_">
				<use xlink:href="#SVGID_00000062171160625642449060000017655932148494753953_"  style="overflow:visible;"/>
			</clipPath>
			<path style="clip-path:url(#SVGID_00000084511482102241196190000008806487374561888163_);fill:#108ECE;" d="M325,210.4
				c11.8-19.5,21.7-40.2,31.7-60.8c0.2-0.4,2.3-2.5,2.5-2.7H372c0,0.6-0.2,1.2-0.2,1.5c-0.6,0.8-1.4,1.4-1.7,2.1
				c-7.5,15.3-15.3,29.8-23.2,44.7c-0.2,0.4,0,0.8-0.2,1.2c-2.5,4.6-5.6,9.1-7.7,13.9L325,210.4z"/>
		</g>
		<g>
			<defs>
				<rect id="SVGID_00000169554383722017891900000007019924767565721227_" x="64.9" y="20.8" width="612.6" height="258.3"/>
			</defs>
			<clipPath id="SVGID_00000036251497851002289620000001814981771537953667_">
				<use xlink:href="#SVGID_00000169554383722017891900000007019924767565721227_"  style="overflow:visible;"/>
			</clipPath>
			<path style="clip-path:url(#SVGID_00000036251497851002289620000001814981771537953667_);fill:#108ECE;" d="M532.4,210.2
				c-1.4-4.8-3.1-9.5-4.6-14.1h-21.9l-5,14.1h-13c5.2-12.6,8.7-25.2,13.2-37.7c1.4-1,7.7-20.9,8.7-24c0.2-0.8,1.2-1.4,1.5-1.9h12.6
				c6.2,19,14.5,38.5,20.1,57.5c0.2,0.8,1.5,2.3,1.9,3.3c0,0.4,0,0.8,0,1.2l0.2,1.7H532.4z M522.1,185.9h1.9
				c-2.7-7-5.2-14.3-7.5-21.5c-1.9,4.1-4.5,10.3-5.8,14.7c-0.6,1.5-1.4,5.2-1.5,6.8H522.1z"/>
		</g>
		<g>
			<defs>
				<rect id="SVGID_00000080168176177571126290000016022577594323734166_" x="64.9" y="20.8" width="612.6" height="258.3"/>
			</defs>
			<clipPath id="SVGID_00000045588737809552795940000017252870896000828820_">
				<use xlink:href="#SVGID_00000080168176177571126290000016022577594323734166_"  style="overflow:visible;"/>
			</clipPath>
			<path style="clip-path:url(#SVGID_00000045588737809552795940000017252870896000828820_);fill:#108ECE;" d="M292.9,211.4
				c-1.9-0.2-4.8-1.4-6.6-2.1c-0.8-0.4-4.8-2.9-5.4-3.3c-3.5-2.9-4.8-6-7.7-8.9c1-1.2,1.9-2.5,3.3-3.1c2.3-1,3.7-2.5,5.4-3.3
				c0.6-0.4,1.4-0.4,1.9-0.4c1.7,1.5,3.9,5.4,6.8,7.7c0,0,4.1,2.1,4.5,2.1c4.1,0.6,8.1,0.8,12,0c1.4-0.2,4.3-3.3,4.8-4.6
				c1.2-3.9-0.8-6.4-3.7-7.9c-5-2.9-13-3.7-18.6-5.6c-0.8-0.2-3.7-1.7-4.5-2.1c-3.5-1.7-7-4.6-8.3-8.3c-1.2-2.9-1-5.6-1.2-8.7
				c0-0.8,0.8-4.8,1.2-5.4c1.2-2.1,4.1-5.6,6-7.2c1-0.8,5.4-3.3,6.6-3.3c1.5,0,6.4-1.2,6.6-1.2c0.4,0,0.8,0,1.2,0
				c3.3-0.2,7,1,10.8,1.2c0,0,8.1,3.9,8.7,4.3c2.5,2.1,5.4,4.6,7.2,7.4c-2.3,2.5-6.8,6.2-9.7,7.9c-0.4-0.6-1-1-1.4-1.5
				c0-1.2-1.9-2.9-2.7-3.5c-1-0.8-5.4-3.3-6.6-3.5c-2.9-0.4-7-0.6-9.9,0.2c-1.7,0.4-4.3,2.9-4.6,4.6c-0.2,1,0.4,3.7,1,4.5
				c0.2,0.2,2.3,2.5,2.5,2.5c5.6,2.5,11.4,4.3,17.4,5.6c1,0.2,6.8,2.7,7.7,3.3c3.5,2.7,5.6,5.2,7.2,9.3c0.4,1,0.4,8.7,0,9.9
				c-0.4,1.4-2.3,5.4-3.3,6.6c-0.6,0.6-4.6,3.7-4.8,3.9C309.5,212.4,301,212.2,292.9,211.4"/>
		</g>
		<g>
			<defs>
				<rect id="SVGID_00000039848839407579294970000016328945338536116384_" x="64.9" y="20.8" width="612.6" height="258.3"/>
			</defs>
			<clipPath id="SVGID_00000051353380496154420860000005313126047553476280_">
				<use xlink:href="#SVGID_00000039848839407579294970000016328945338536116384_"  style="overflow:visible;"/>
			</clipPath>
			<path style="clip-path:url(#SVGID_00000051353380496154420860000005313126047553476280_);fill:#108ECE;" d="M472.4,210.2
				c-0.2-9.1,0-18.2,0-27.3h-25v27.3h-12.6c-0.8-0.2-1.5-1-1.5-1.7c-0.2-20.5,0-41.2,0-61.9h14.1v24.2h25v-24h13.4v63.5H472.4z"/>
		</g>
		<g>
			<defs>
				<rect id="SVGID_00000079445504917813486320000011666445660204260499_" x="64.9" y="20.8" width="612.6" height="258.3"/>
			</defs>
			<clipPath id="SVGID_00000136401521699482148460000015537355046008564405_">
				<use xlink:href="#SVGID_00000079445504917813486320000011666445660204260499_"  style="overflow:visible;"/>
			</clipPath>
			<path style="clip-path:url(#SVGID_00000136401521699482148460000015537355046008564405_);fill:#108ECE;" d="M588.3,210.2
				c-8.7-13.5-17.8-26.7-26.7-40.1h-1.5v40.1h-12.2v-63.7h13.9c8.3,13.9,18,27.1,26.5,41v-40.8h13.2v61.9c-0.4,0.8-0.8,1.5-1.7,1.7
				C596,210.6,592.2,210.2,588.3,210.2"/>
		</g>
		<g>
			<defs>
				<rect id="SVGID_00000003817775852469114550000015539869966323466633_" x="64.9" y="20.8" width="612.6" height="258.3"/>
			</defs>
			<clipPath id="SVGID_00000063609181453603698300000007778824641680252080_">
				<use xlink:href="#SVGID_00000003817775852469114550000015539869966323466633_"  style="overflow:visible;"/>
			</clipPath>
			<path style="clip-path:url(#SVGID_00000063609181453603698300000007778824641680252080_);fill:#108ECE;" d="M647.3,210.2
				c-1.5-4.8-3.1-9.5-4.8-14.1h-22.1c-1.7,4.6-3.3,9.5-4.8,14.1h-12.8c7.4-21.3,15.1-42.4,22.6-63.7c4.1,0,8.3,0,12.4,0
				c0.6,0.4,1.4,1.2,1.7,1.9c6.4,18.8,13.2,39.9,20.7,57.9c0.4,1,0.4,2.7,0.4,3.9H647.3z M636.9,185.9h1.5c0-1,0.2-2.5-0.2-3.5
				c-2.1-5.4-3.9-10.6-5.4-16.4c-0.4-1.4-0.8-2.9-1.4-1.4c-2.7,7-5,14.1-7.4,21.5h12.8V185.9z"/>
		</g>
	</g>
	<path class="st10" d="M626.6,104.6c-4.6-0.4-9.5,0.6-14.3,2.5c-3.7,1.5-5.4,0.6-6.6-3.5c-5.6-21.3-19.2-36.4-39.9-43.7
		c-35.8-12.8-73.1,6.6-83,42.2c-2.7,9.9-2.5,9.5-12.6,8.1c-23.6-3.1-44.1,2.9-60,21.7c-1,1.2-2.3,2.1-3.5,3.3
		c-3.1,2.9-6.4,3.1-9.5,0.6c-3.3-2.7-4.5-6.4-1.5-10.3c10.3-13.7,24-23.2,40.4-28.1c9.1-2.7,18.4-4.3,27.9-3.1c4.3,0.6,5.6-1.5,7-5
		c12.2-29.6,41.6-49.7,73.5-48.8c31.7,1,55.5,15.7,70,44.1c1.9,3.7,3.7,5,7.9,4.6c27.5-2.1,52.2,14.5,60.9,39.9
		c0.8,1.9,1.7,3.1,3.9,3.9c20.3,8.5,32.1,24,36.4,45.5c5.8,30.2-15.5,58.4-40.1,66c-9.3,2.9-18.8,4.5-28.4,1.9
		c-4.3-1.2-7.9-0.4-12,1.9c-13.4,8.1-28.1,9.3-43.1,6c-4.1-1-8.3-1.5-11.8-4.1c-2.1-1.5-3.3,0-4.8,1.4c-11.4,10.8-25.3,17-40.8,17.2
		c-16.8,0.2-31.7-6.8-43.5-19.2c-2.3-2.3-3.7-3.1-7-1.7c-31.5,13.2-60.6,8.5-86.9-13.5c-0.6-0.6-1.4-1.2-1.9-1.7
		c-4.5-4.8-4.6-8.5-0.8-12.4c3.5-3.3,6.8-2.9,11.4,1.4c9.9,9.3,21.5,15.1,34.8,17.2c17.4,2.7,33.5-1.2,48-11
		c3.5-2.3,4.5-1.2,6.4,1.7c9.3,15.5,23,24,41.4,23c13.9-0.8,25.5-6.8,33.7-18.8c3.5-5.2,4.3-5.8,9.7-1.9
		c12.2,8.7,25.2,10.8,39.5,6.8c6-1.7,10.8-5,15.7-8.5c2.1-1.5,3.9-1.9,6.6-1c17.6,6.6,36.4,1.5,49.3-12.8
		c11.2-12.4,13.5-33.3,5.4-49c-6.2-11.8-16.1-19.3-28.8-22.6c-3.3-0.8-4.3-2.3-4.8-5.6C666.5,120.1,648.7,104,626.6,104.6z"/>
</g>
</svg>
