<?xml version="1.0" encoding="utf-8"?>
<!-- Generator: Adobe Illustrator 26.4.1, SVG Export Plug-In . SVG Version: 6.00 Build 0)  -->
<svg version="1.1" id="Layer_1" xmlns="http://www.w3.org/2000/svg" xmlns:xlink="http://www.w3.org/1999/xlink" x="0px" y="0px"
	 viewBox="0 0 800 320" style="enable-background:new 0 0 800 320;" xml:space="preserve">
<style type="text/css">
	.st0{fill:#67BD51;}
	.st1{fill-rule:evenodd;clip-rule:evenodd;fill:#EF0008;}
	.st2{fill:#255B42;}
</style>
<g id="Layer_1_00000012442617894925602560000012117798965973003148_">
	<g>
		<path class="st0" d="M417.2,254.2v27.4h-9.6v-25.5c0-7.3-4.4-12.3-10.9-12.3c-8.2,0-13.6,5.4-13.6,16.9v20.9h-9.6v-45.2h9.6v5.6
			c3.8-4.4,9-6.9,15.7-6.9C409.9,234.9,417.2,242.9,417.2,254.2"/>
		<path class="st0" d="M470.6,261.3h-36.8c0.8,8.4,7.1,13.4,13.8,13.4c5,0,10.3-1.5,13.4-7.9l8.6,1.9c-3.8,9.6-11.7,14.2-22,14.2
			c-12.3,0-23.2-9.6-23.2-23.8c0-14.4,10.7-24.1,23.6-24.1c12.1,0,22.2,9.4,22.8,23v3.3H470.6z M434,254.6h26.8
			c-1.5-7.3-6.7-11.1-13-11.1C441.9,243.5,435.4,247.3,434,254.6z"/>
		<path class="st0" d="M508.7,236.2l-0.6,9.2c-0.8,0-1.9,0-2.7,0c-11.5,0-17.2,8.2-17.2,20.5V282h-9.4v-45.6h9.6v9.6
			c3.8-6.1,9.4-10.3,17.4-10.3C506.6,235.8,507.6,235.8,508.7,236.2"/>
		<path class="st0" d="M557.2,277.8c0,13.6-9.4,21.3-23.6,21.3c-10.9,0-18.4-4.2-22.2-10.9l7.7-5.9c3.3,5.2,7.1,8.2,14.4,8.2
			c8.6,0,14.2-5.4,14.2-14.2v-2.9c-3.6,3.8-8.8,5.6-15.7,5.6c-11.7,0-22.2-9.4-22.2-22.2c0-12.6,10.7-22,22.2-22
			c6.9,0,12.1,2.1,15.7,5.6v-4.2h9.2v41.4H557.2z M548,257.1c0-8.4-6.7-13.8-14-13.8c-8.2,0-14.6,5.4-14.6,13.8
			c0,8.4,6.5,13.8,14.6,13.8C541.3,270.9,548,265.3,548,257.1z"/>
		<polygon class="st0" points="586.3,297.3 575.6,297.3 582.9,280.7 563.3,236.2 573.9,236.2 588.1,269 602.8,236.2 613.5,236.2 		
			"/>
		<path class="st1" d="M366.8,81.2c-6.3,0-11.9,1-16.7,3.3v90.8c3.6,1.5,7.9,2.1,13.6,2.1c15.3,0,23.2-4.6,28.9-15.3
			c5-9.8,6.3-19.9,6.7-29.1c0.4-9-0.2-17.4-1.7-24.9c-1.9-8.8-5.2-15.7-10-20.3C382.7,83.5,375.8,81.2,366.8,81.2 M411,163.8
			c-4.2,8.2-9.8,14.4-16.9,18.8c-7.1,4.4-15.7,6.5-25.3,6.5c-2.9,0-6.3-0.2-9.8-0.8s-6.5-1.3-8.6-1.9l-0.2,45.2h-18.6v-154
			c4.2-2.5,9.4-4.4,15.3-5.9c6.1-1.5,12.8-2.3,20.1-2.3c13.4,0,24.3,3.6,32.8,10.9c8.6,7.3,14.2,17.4,16.9,30.1
			c1.9,9,2.3,18.4,1.3,28C417,148.3,414.5,156.7,411,163.8z"/>
		<rect x="430.8" y="18.8" class="st1" width="18.6" height="168.6"/>
		<path class="st1" d="M515.1,81c-6.7,0-12.6,1.7-17.4,5.2c-4.8,3.3-8.6,8.4-11.3,14.9c-2.7,6.5-4.2,14-4.8,22.8s0,16.9,1.7,24.9
			c1.9,9.2,5.4,16.3,10.3,21.1c5,5,11.7,7.3,20.5,7.3c7.5,0,13.4-1.3,17.4-3.6V84.3c-1.7-0.8-3.8-1.7-6.5-2.3
			C521.8,81.2,518.7,81,515.1,81 M550.1,181.6c-3.6,2.3-8.4,4.2-14.6,5.9c-6.3,1.7-13.2,2.3-20.7,2.3c-13.4,0-24.5-3.8-33.3-11.1
			c-8.8-7.5-14.4-17.6-16.9-30.3c-1.9-9.4-2.3-19.2-1-29.3c1.3-10,4-18.8,8.2-26.2s9.8-13.2,17.2-17.2c7.3-4.2,15.9-6.1,26.2-6.1
			c6.7,0,13.4,0.8,19.9,2.5s11.7,3.6,15.3,5.6L550.1,181.6z"/>
		<path class="st1" d="M611,83.3h-19.9l0.2,75.7l0.6,5.9c0.6,3.3,2.1,6.1,4.2,8.2c2.1,2.1,5.2,2.9,9.2,2.9c1.5,0,3.3-0.4,5.9-1
			l0.2,12.3c-0.8,0.4-2.5,0.8-4.6,1.3s-4,0.6-5.9,0.6c-7.9,0-14.2-2.1-18.8-6.1c-4.6-4.2-7.5-9.4-9-15.9c-0.2-1.3-0.4-2.3-0.6-3.3
			c-0.2-0.8-0.2-2.5-0.2-4.6L572,83.5h-13.2V72h13.4L572,45.4l19.2-5.9L591.1,72H611V83.3z"/>
		<path class="st2" d="M249.7,270.1c-4.8-5.9-8.2-13.4-10.5-20.9c-4.6-14.6-6.3-30.1-5-45.4c0.4-5.6,1.5-13.4,7.1-15.9
			c8.2-3.6,7.9-2.3,21.1-7.7c11.3-4.6,23.2-10,39.7-25.1c14.2-12.8,25.7-31.6,21.3-51.7c-4.8-21.1-25.7-32.6-45.4-22.4
			c-8.2,4.2-14.9,11.1-20.3,18.6c-15.5,21.1-26.6,47.1-31.4,74.1l-4.2,1.9c-4.4,2.1-6.7,7.3-5,11.7c1.3,3.1,3.8,5.2,6.7,5.9
			c-1,14.4,0,28.7,2.9,42.5c5.4,24.9,22.6,51.5,47.7,59.6C264.7,288.3,256.1,279.7,249.7,270.1 M240.7,164.8
			c0.8-5.6,4-11.5,6.3-16.7c2.3-5.6,5-11.5,8.2-16.9c5.9-10.7,13.2-20.7,22.6-28.2c5.6-4.6,12.8-8.8,20.3-7.9
			c6.7,0.8,12.6,6.1,14.2,12.8c1.3,5,0.2,10.3-1.7,14.9c-5.6,14.2-17.8,24.7-31,32c-11.1,6.1-23,10.3-34.9,14
			C241.7,169.4,240.2,167.8,240.7,164.8z"/>
		<polyline class="st0" points="274.8,295.2 274.8,295.2 274.8,295.2 274.8,295.2 		"/>
		<path class="st0" d="M249.7,270.1L249.7,270.1L249.7,270.1L249.7,270.1"/>
		<path class="st1" d="M220.2,139.7c-2.5-12.1-12.1-22-28.2-29.3c-16.7-7.7-26.2-15.7-27.8-23.8c-1.5-7.5,0-14.2,4.6-19.7
			c4.6-5.6,11.1-8.4,19.5-8.4c4.8,0,9.4,0.6,13.6,2.1c3.8,1.3,7.1,2.7,9.8,4.6l4.8-11.1c-4.2-2.9-9-5.2-14.2-6.9
			c-5.4-1.7-11.5-2.5-18.2-2.5c-14.4,0-25.5,4.6-32.6,13.4c-7.3,8.8-9.6,19.2-7.3,31c2.5,12.1,11.7,22,27.6,29.3
			c16.3,7.5,25.3,15.7,27.2,24.1c1.7,8.4,0,15.9-5,22c-5,6.3-12.3,9.4-21.8,9.4c-5.9,0-11.5-0.6-16.1-2.1c-4.4-1.3-8.2-2.9-11.1-5
			l-5.2,12.8c4.4,2.9,9.8,5.2,15.7,6.9c6.3,1.7,13,2.5,19.9,2.5c16.5,0,29.1-4.8,37.2-14.6C220.2,164.6,222.9,152.9,220.2,139.7"/>
		<path class="st0" d="M366.6,225.1c-18,20.5-38.9,38.9-63.6,50.4c-6.7,3.1-13.8,5.6-21.1,6.7c-7.3,0.8-15.1,0-21.8-3.3
			c-0.6-0.4-1.3-0.6-1.9-1c-0.2-0.2-0.4-0.2-0.4-0.4c-0.4-0.2-0.8-0.6-1.3-0.8c-0.2-0.2-0.4-0.2-0.4-0.4c-0.6-0.4-1-0.8-1.7-1.3
			c0,0,0,0-0.2-0.2c-0.4-0.4-0.8-0.8-1.5-1.3c-0.2-0.2-0.4-0.4-0.4-0.4c-0.4-0.4-0.6-0.6-1-1c-0.2-0.2-0.4-0.4-0.4-0.4
			c-0.4-0.4-0.8-1-1.3-1.5l0,0c6.5,9.6,15.1,18.2,24.9,25.3l0,0c1,0.2,1.9,0.6,2.9,0.8l0,0c0.8,0.2,1.9,0.4,2.9,0.6h0.2
			c0.8,0.2,1.7,0.2,2.7,0.4c0.2,0,0.4,0,0.6,0c1,0.2,2.1,0.2,3.1,0.2c13,0.8,25.9-3.6,37-10.3c19.5-11.7,34.5-30.8,41.2-52.5
			C366.4,231.6,367.2,228.4,366.6,225.1"/>
	</g>
</g>
</svg>
